<svg width="80" height="80" viewBox="0 0 80 80" fill="none" xmlns="http://www.w3.org/2000/svg">
<mask id="mask0_1622_28171" style="mask-type:alpha" maskUnits="userSpaceOnUse" x="8" y="0" width="64" height="80">
<path fill-rule="evenodd" clip-rule="evenodd" d="M22.2222 18.1818C22.2222 8.14028 30.1816 0 40 0C49.8184 0 57.7778 8.14028 57.7778 18.1818V32.7273C57.7778 42.7688 49.8184 50.9091 40 50.9091C30.1816 50.9091 22.2222 42.7688 22.2222 32.7273V18.1818ZM50.6667 18.1818V32.7273C50.6667 38.7522 45.891 43.6364 40 43.6364C34.109 43.6364 29.3333 38.7522 29.3333 32.7273V18.1818C29.3333 12.1569 34.109 7.27273 40 7.27273C45.891 7.27273 50.6667 12.1569 50.6667 18.1818Z" fill="white"/>
<path d="M15.1111 32.7273C15.1111 30.719 13.5192 29.0909 11.5556 29.0909C9.59188 29.0909 8 30.719 8 32.7273C8 49.5729 20.4446 63.4459 36.4444 65.2548V72.7273H29.3333C27.3697 72.7273 25.7778 74.3553 25.7778 76.3636C25.7778 78.3719 27.3697 80 29.3333 80H50.6667C52.6303 80 54.2222 78.3719 54.2222 76.3636C54.2222 74.3553 52.6303 72.7273 50.6667 72.7273H43.5556V65.2548C59.5554 63.4459 72 49.5729 72 32.7273C72 30.719 70.4081 29.0909 68.4444 29.0909C66.4808 29.0909 64.8889 30.719 64.8889 32.7273C64.8889 46.7854 53.7458 58.1818 40 58.1818C26.2542 58.1818 15.1111 46.7854 15.1111 32.7273Z" fill="white"/>
</mask>
<g mask="url(#mask0_1622_28171)">
<rect x="-24" y="-24" width="128" height="128" fill="#0A63E3"/>
<rect x="-24" y="-24" width="128" height="128" fill="url(#paint0_radial_1622_28171)"/>
<rect x="-24" y="-24" width="128" height="128" fill="url(#paint1_radial_1622_28171)"/>
</g>
<defs>
<radialGradient id="paint0_radial_1622_28171" cx="0" cy="0" r="1" gradientUnits="userSpaceOnUse" gradientTransform="translate(-24 -24) rotate(45) scale(181.019)">
<stop stop-color="#1CA8F7"/>
<stop offset="1" stop-color="#1CA8F7" stop-opacity="0"/>
</radialGradient>
<radialGradient id="paint1_radial_1622_28171" cx="0" cy="0" r="1" gradientUnits="userSpaceOnUse" gradientTransform="translate(104 102) rotate(-135.451) scale(179.611)">
<stop stop-color="#0133D4"/>
<stop offset="1" stop-color="#0133D4" stop-opacity="0"/>
</radialGradient>
</defs>
</svg>
